<?xml version="1.0" encoding="UTF-8"?>
<svg version="1.1" xmlns="http://www.w3.org/2000/svg" width="626" height="626">
<!-- <path d="M0 0 C206.58 0 413.16 0 626 0 C626 206.58 626 413.16 626 626 C419.42 626 212.84 626 0 626 C0 419.42 0 212.84 0 0 Z " fill="#FEFEFE" transform="translate(0,0)"/> -->
<path d="M0 0 C0.99 0.33 1.98 0.66 3 1 C7.31338813 15.63470972 6.28551648 30.91155205 6 46 C6.66 46 7.32 46 8 46 C8.95245343 42.03407684 9.0778177 38.41543784 8.9921875 34.34375 C8.97542969 33.07402344 8.95867187 31.80429688 8.94140625 30.49609375 C8.89713307 27.83189001 8.84504839 25.16780464 8.78515625 22.50390625 C8.77097656 21.23417969 8.75679687 19.96445313 8.7421875 18.65625 C8.7201123 17.49931641 8.69803711 16.34238281 8.67529297 15.15039062 C9.03574096 11.65323211 9.86227074 9.76899195 12 7 C12.66 7 13.32 7 14 7 C14.15819214 8.29417847 14.15819214 8.29417847 14.31958008 9.61450195 C14.71753428 12.81951237 15.12695937 16.02278827 15.54418945 19.2253418 C15.72229757 20.61082523 15.89584183 21.99690341 16.06469727 23.38354492 C16.30841344 25.3783011 16.56999913 27.37084833 16.83203125 29.36328125 C16.98389893 30.56251221 17.1357666 31.76174316 17.29223633 32.99731445 C18.02408779 36.10219238 18.44477429 37.18057624 21 39 C23.55709019 40.01544071 26.08470706 40.93569786 28.6875 41.8125 C34.92641467 44.04187775 40.17111314 46.32422418 45 51 C45.54914063 51.52207031 46.09828125 52.04414063 46.6640625 52.58203125 C50.98274718 57.12409617 52.9395011 62.15757275 55 68 C57.51942172 75.07494754 59.63735172 79.84176382 65.91015625 84.3828125 C66.55855469 84.87523437 67.20695312 85.36765625 67.875 85.875 C68.49117188 86.30554688 69.10734375 86.73609375 69.7421875 87.1796875 C71 89 71 89 70.90234375 92.19140625 C69.90165408 96.41509642 68.47553536 100.12282459 66.6875 104.0625 C66.39166016 104.74376953 66.09582031 105.42503906 65.79101562 106.12695312 C62.47083346 113.59198472 59.40292017 118.36583919 52 122 C48.76184829 123.0793839 46.15361045 123.17398097 42.75 123.3125 C36.94237948 123.75178609 33.50521456 124.26163047 29 128 C24.99855543 133.29532485 24.20105997 138.5335791 25 145 C26.46732687 150.98817628 28.60686055 156.72021536 30.90625 162.43066406 C41.59104745 189.05159408 43.40413971 213.22754203 32 240 C29.88550594 244.43788434 27.61760671 248.78361016 25.3125 253.125 C24.69191923 254.3100526 24.07213915 255.49552481 23.453125 256.68139648 C20.70889119 261.92778893 17.92915644 267.15275954 15.07421875 272.33984375 C6.22319207 288.49775201 1.1105142 304.86181407 -2 323 C-2.11859375 323.67305176 -2.2371875 324.34610352 -2.359375 325.03955078 C-4.20301436 336.07669535 -4.20398874 347.21502935 -4.25 358.375 C-4.25535767 359.10679474 -4.26071533 359.83858948 -4.26623535 360.59255981 C-4.33173954 372.39373447 -3.36877271 383.46142656 0.31640625 394.74609375 C1.03684552 397.12148493 1.51319266 399.56596331 2 402 C-7.57 402 -17.14 402 -27 402 C-30.43457387 392.84113634 -32.35926806 385.20946719 -33.125 375.5625 C-33.21136719 374.54478516 -33.29773438 373.52707031 -33.38671875 372.47851562 C-33.59734326 369.98612558 -33.80160071 367.4933879 -34 365 C-34.43513916 365.66547852 -34.87027832 366.33095703 -35.31860352 367.01660156 C-39.81396123 373.82839066 -45.08288834 379.40434109 -51 385 C-49.31259686 388.54039257 -47.24209309 391.67695716 -45.0234375 394.90234375 C-43.79416858 397.42187584 -43.92519988 399.22982592 -44 402 C-56.49177695 402.04641651 -68.98353325 402.08191653 -81.47537899 402.10362434 C-87.27634167 402.11404494 -93.07724519 402.12817268 -98.87817383 402.15087891 C-104.48027182 402.17266871 -110.08231303 402.18458159 -115.68445015 402.18975449 C-117.81778418 402.19343923 -119.95111523 402.20063454 -122.08442497 402.21146011 C-125.08100893 402.22605653 -128.07736061 402.22797453 -131.07397461 402.22705078 C-131.94863876 402.23424133 -132.82330292 402.24143188 -133.72447205 402.24884033 C-144.72232741 402.21234657 -153.985965 399.37578085 -163 393 C-155.58769406 404.75960774 -143.98910378 411.32671739 -130.78346252 414.86080933 C-118.01992005 417.5710693 -105.40150383 417.36292552 -92.40234375 417.2578125 C-89.95333799 417.24965862 -87.50432684 417.24300185 -85.05531311 417.23776245 C-78.65477093 417.22076733 -72.25444625 417.18657822 -65.85400391 417.14770508 C-55.58052039 417.0881468 -45.30692505 417.05457637 -35.0333271 417.02193832 C-31.4576262 417.00802757 -27.88203528 416.98643869 -24.30638123 416.96365356 C-22.11432978 416.95362965 -19.9222776 416.94376393 -17.73022461 416.93408203 C-16.74259628 416.92577362 -15.75496796 416.91746521 -14.7374115 416.90890503 C-9.70080423 416.89270413 -4.96600246 417.16372424 0 418 C19.00743976 419.16182395 38.72923786 419.07919989 55 408 C55.58910156 407.61070312 56.17820312 407.22140625 56.78515625 406.8203125 C61.30072074 403.4711726 64.1703382 398.76440044 67 394 C67.37898438 393.38898438 67.75796875 392.77796875 68.1484375 392.1484375 C70.30692121 386.70272172 69.97129279 379.18164015 68.27734375 373.6328125 C66.29196711 369.88712216 63.97638573 367.41382604 60 366 C55.70367078 365.82291116 52.20995289 366.27402826 48.5 368.5 C46.58095636 371.69840606 46.43023959 374.38936968 46.2734375 378.07421875 C46.18320312 378.70972656 46.09296875 379.34523438 46 380 C42.23245036 381.88377482 38.09322079 381.63726791 34 381 C29.52796415 378.6811666 26.11723105 374.90568288 24.4453125 370.1015625 C22.65428962 361.64919138 23.56542279 354.85968194 28.1015625 347.48046875 C33.33969444 340.63640748 39.7406737 337.05298742 48 335 C48.6290625 334.81566406 49.258125 334.63132812 49.90625 334.44140625 C61.44225667 332.00937499 73.17802445 334.83866871 83 341 C94.53987369 349.58580423 102.38004988 361.516285 104.640625 375.80078125 C106.8764034 395.70406937 101.98852822 412.82247378 89.87109375 428.80859375 C71.05030489 450.92891268 43.3268905 455.29088709 16 458 C15.03852051 458.10441406 14.07704102 458.20882813 13.08642578 458.31640625 C-22.81051087 462.14282959 -59.09196031 460.39325467 -95.0146637 457.91222 C-97.34938527 457.75176044 -99.6843601 457.59552351 -102.01940918 457.43991089 C-144.67620271 454.56592193 -144.67620271 454.56592193 -162 446 C-163.05445313 445.50886719 -164.10890625 445.01773437 -165.1953125 444.51171875 C-182.59857794 435.89237097 -195.3011035 421.15703727 -202 403 C-203.29325343 398.69895259 -204.23236937 394.42254294 -205 390 C-205.16080551 389.15611221 -205.32161102 388.31222443 -205.48728943 387.44276428 C-206.77619352 380.35867216 -207.29509956 373.57467939 -207.265625 366.3828125 C-207.26753845 365.32319305 -207.2694519 364.26357361 -207.27142334 363.17184448 C-207.27277373 360.94838216 -207.2691582 358.72491165 -207.26074219 356.50146484 C-207.25004809 353.14011499 -207.2606661 349.77930209 -207.2734375 346.41796875 C-207.2806162 335.42270073 -207.07136393 324.82820654 -205 314 C-204.7737722 312.6238566 -204.54835508 311.24757934 -204.32421875 309.87109375 C-197.06932486 270.74807703 -183.6872984 229.94791109 -149.55175781 205.93701172 C-139.31463226 199.07561719 -128.30734918 193.84776729 -117.02661133 188.95385742 C-104.69415429 183.5953334 -94.77464349 177.33722398 -85 168 C-84.38511719 167.45988281 -83.77023437 166.91976562 -83.13671875 166.36328125 C-65.26293281 150.05088351 -58.26992205 124.0804327 -55 101 C-51.78406984 78.55280752 -48.31004324 60.12813417 -31 44 C-30.0311084 43.40243896 -29.0622168 42.80487793 -28.06396484 42.18920898 C-24.76734855 39.83377007 -23.28568195 37.87424551 -21.23046875 34.4140625 C-20.57304687 33.32399902 -19.915625 32.23393555 -19.23828125 31.11083984 C-18.55454705 29.94897587 -17.8709556 28.78702788 -17.1875 27.625 C-16.48063387 26.44524597 -15.77229473 25.26637328 -15.0625 24.08837891 C-13.67082432 21.77812284 -12.28389456 19.46528825 -10.89990234 17.15039062 C-8.5042584 13.17796844 -6.0283734 9.26391177 -3.5 5.375 C-2.8090625 4.31023437 -2.118125 3.24546875 -1.40625 2.1484375 C-0.9421875 1.43945312 -0.478125 0.73046875 0 0 Z " fill="#000000" transform="translate(364,83)"/>
<path d="M0 0 C0.95629807 -0.00137466 1.91259613 -0.00274933 2.89787292 -0.00416565 C4.46125145 0.00122726 4.46125145 0.00122726 6.05621338 0.00672913 C7.15895096 0.0065831 8.26168854 0.00643707 9.39784241 0.00628662 C13.04472822 0.00698359 16.69156304 0.01476594 20.33843994 0.02259827 C22.86621065 0.02446321 25.39398173 0.02588675 27.92175293 0.02688599 C33.89630363 0.03031472 39.87083242 0.03819718 45.84537435 0.04823548 C52.64823718 0.05941712 59.45110089 0.06491224 66.25397062 0.06993091 C80.24567887 0.08038034 94.2373709 0.09796699 108.22906494 0.12025452 C108.22906494 0.45025452 108.22906494 0.78025452 108.22906494 1.12025452 C103.27906494 1.12025452 98.32906494 1.12025452 93.22906494 1.12025452 C93.22906494 1.78025452 93.22906494 2.44025452 93.22906494 3.12025452 C80.37289549 3.1665388 67.51674577 3.20210383 54.66051006 3.22387886 C48.69122569 3.23432831 42.72199821 3.24850872 36.75274658 3.27113342 C30.99506379 3.29282034 25.23743582 3.30481439 19.47971535 3.310009 C17.28001861 3.31371223 15.08032496 3.32094342 12.88065147 3.33171463 C9.80621161 3.34617431 6.73199998 3.34823477 3.65753174 3.3473053 C2.74259445 3.35449585 1.82765717 3.3616864 0.88499451 3.36909485 C0.04786926 3.36634552 -0.78925598 3.36359619 -1.65174866 3.36076355 C-2.37904332 3.36260714 -3.10633799 3.36445072 -3.85567188 3.36635017 C-5.77093506 3.12025452 -5.77093506 3.12025452 -8.77093506 1.12025452 C-5.77471729 0.25318716 -3.11477619 -0.00346086 0 0 Z " fill="#1B1B1B" transform="translate(248.77093505859375,499.87974548339844)"/>
<path d="M0 0 C2.11481861 3.17222791 2.18670119 3.54173444 1.9375 7.0625 C1.69824626 16.91975422 6.64234291 26.49441601 10.21484375 35.49609375 C14.74387464 47.11551757 14.74387464 47.11551757 13.0625 51.375 C12.711875 51.91125 12.36125 52.4475 12 53 C11.45808867 51.15364599 10.91617758 49.3072919 10.37426758 47.4609375 C9.91556231 45.90071993 9.45575982 44.34082454 8.99487305 42.78125 C8.00137054 39.41873425 7.01571601 36.05612862 6.0703125 32.6796875 C5.82023437 31.79539063 5.57015625 30.91109375 5.3125 30 C5.10238281 29.236875 4.89226562 28.47375 4.67578125 27.6875 C4.13243195 25.789522 4.13243195 25.789522 2 25 C-0.70977374 17.56676743 -1.73369865 9.87315092 -1 2 C-0.67 1.34 -0.34 0.68 0 0 Z " fill="#1A1A1A" transform="translate(387,216)"/>
<path d="M0 0 C1.49466797 0.01353516 1.49466797 0.01353516 3.01953125 0.02734375 C4.09267578 0.04474609 4.09267578 0.04474609 5.1875 0.0625 C5.1875 0.3925 5.1875 0.7225 5.1875 1.0625 C2.2175 1.0625 -0.7525 1.0625 -3.8125 1.0625 C-3.8125 1.7225 -3.8125 2.3825 -3.8125 3.0625 C-14.94911958 3.85214916 -25.96541775 4.16155848 -37.12890625 3.94140625 C-38.60675667 3.91700053 -40.08461656 3.89316299 -41.56248474 3.86985779 C-45.38792008 3.80805294 -49.21318 3.73871324 -53.03845215 3.66760254 C-56.96761317 3.59596171 -60.89689521 3.5317249 -64.82617188 3.46679688 C-72.48841537 3.33912741 -80.15048838 3.20346842 -87.8125 3.0625 C-87.8125 2.7325 -87.8125 2.4025 -87.8125 2.0625 C-86.98945877 2.05219254 -86.16641754 2.04188507 -85.31843567 2.03126526 C-77.50815126 1.93271012 -69.69793458 1.83012122 -61.88776112 1.72316074 C-57.87384767 1.66832813 -53.85992664 1.61497836 -49.84594727 1.56518555 C-45.96200349 1.51694844 -42.07813377 1.46459673 -38.19428062 1.40955925 C-36.72297737 1.38940063 -35.25165404 1.37064923 -33.78031349 1.35342598 C-25.64943341 1.25724573 -17.57317101 0.98838483 -9.46899414 0.27966309 C-6.30619171 0.02111031 -3.17244932 -0.03822228 0 0 Z " fill="#121212" transform="translate(383.8125,537.9375)"/>
<path d="M0 0 C0.66 0 1.32 0 2 0 C2.36374381 2.89491978 2.71628667 5.79047623 3.0625 8.6875 C3.16626953 9.50412109 3.27003906 10.32074219 3.37695312 11.16210938 C3.86771898 15.3420806 4.19772195 18.88754211 3 23 C2.67 23 2.34 23 2 23 C1.67 24.65 1.34 26.3 1 28 C0.01 28 -0.98 28 -2 28 C-2.25574877 24.27215931 -2.47490227 20.54303066 -2.6875 16.8125 C-2.76033203 15.75740234 -2.83316406 14.70230469 -2.90820312 13.61523438 C-2.96298828 12.59365234 -3.01777344 11.57207031 -3.07421875 10.51953125 C-3.13182373 9.58214111 -3.18942871 8.64475098 -3.2487793 7.67895508 C-2.94604096 4.41894747 -1.95526354 2.60043864 0 0 Z " fill="#101010" transform="translate(376,90)"/>
<path d="M0 0 C1.5625 1.75 1.5625 1.75 3 4 C2.67 5.32 2.34 6.64 2 8 C-28.69 8 -59.38 8 -91 8 C-91 7.67 -91 7.34 -91 7 C-45.955 6.505 -45.955 6.505 0 6 C-0.495 3.525 -0.495 3.525 -1 1 C-0.67 0.67 -0.34 0.34 0 0 Z " fill="#222222" transform="translate(317,476)"/>
<path d="M0 0 C0.33 0 0.66 0 1 0 C1.76780152 4.13026933 2.15179473 8.09100985 2.24609375 12.2890625 C2.27896484 13.47886719 2.31183594 14.66867187 2.34570312 15.89453125 C2.40632235 18.35799328 2.46367826 20.82153804 2.51757812 23.28515625 C2.71300865 30.13628677 3.27172002 36.68238051 4.57006836 43.41650391 C5.16615758 46.99845514 5.1393112 50.37790885 5 54 C-1.92298249 43.61552627 -0.12627381 28.91373995 -0.0625 16.9375 C-0.0574758 15.29231907 -0.05291452 13.64713665 -0.04882812 12.00195312 C-0.03789342 8.00126502 -0.0206793 4.00064912 0 0 Z " fill="#0E0E0E" transform="translate(357,424)"/>
<path d="M0 0 C7.19521725 -0.081462 14.30566578 0.12352649 21.48046875 0.65625 C22.41933426 0.72283813 23.35819977 0.78942627 24.32551575 0.85803223 C27.27978424 1.06838794 30.23363257 1.28409308 33.1875 1.5 C35.20895886 1.64488769 37.23044308 1.78942201 39.25195312 1.93359375 C44.16827087 2.28498537 49.0842198 2.64117 54 3 C52 5 52 5 49.28271484 5.23046875 C40.36579193 5.11930722 31.5190916 4.67022686 22.625 4 C21.29169995 3.9031863 19.95836659 3.8068303 18.625 3.7109375 C15.41631209 3.47842388 12.2080303 3.24138871 9 3 C9 2.67 9 2.34 9 2 C6.03 1.67 3.06 1.34 0 1 C0 0.67 0 0.34 0 0 Z " fill="#121212" transform="translate(236,536)"/>
<path d="M0 0 C2 3 2 3 3 8 C-6.57 8 -16.14 8 -26 8 C-28 4 -28 4 -28 1 C-27.34 1 -26.68 1 -26 1 C-25.67 2.65 -25.34 4.3 -25 6 C-16.75 6 -8.5 6 0 6 C-0.33 4.68 -0.66 3.36 -1 2 C-0.67 1.34 -0.34 0.68 0 0 Z " fill="#040404" transform="translate(363,477)"/>
<path d="M0 0 C0.66 0.33 1.32 0.66 2 1 C0.515 6.445 0.515 6.445 -1 12 C-1.66 12 -2.32 12 -3 12 C-2.14285714 3.42857143 -2.14285714 3.42857143 0 0 Z M-4 12 C-3.34 12.33 -2.68 12.66 -2 13 C-2.30731987 15.64653131 -2.62059322 18.292115 -2.9375 20.9375 C-3.02451172 21.69224609 -3.11152344 22.44699219 -3.20117188 23.22460938 C-3.88671875 28.88671875 -3.88671875 28.88671875 -5 30 C-5.04092937 32.33297433 -5.04241723 34.66705225 -5 37 C-5.99 37.33 -6.98 37.66 -8 38 C-7.71536919 35.16580388 -7.42249381 32.33285146 -7.125 29.5 C-7.04636719 28.70851562 -6.96773438 27.91703125 -6.88671875 27.1015625 C-6.33344911 21.90933976 -5.3751765 17.03846179 -4 12 Z " fill="#131313" transform="translate(317,148)"/>
<path d="M0 0 C1.828125 0.1953125 1.828125 0.1953125 4 1 C5.484375 3.1796875 5.484375 3.1796875 6.75 5.875 C7.39195312 7.20144531 7.39195312 7.20144531 8.046875 8.5546875 C9 11 9 11 9 14 C6.75 13.875 6.75 13.875 4 13 C1.00319941 9.59822636 0.04377744 7.67855028 -0.25 3.125 C-0.1675 2.09375 -0.085 1.0625 0 0 Z " fill="#E5E5E5" transform="translate(401,149)"/>
<path d="M0 0 C0.66 0.66 1.32 1.32 2 2 C-2.82997802 8.56939133 -8.11782635 14.35791507 -14 20 C-12.79618552 22.49361571 -11.54571278 24.68143083 -10 27 C-13.51716303 27 -14.37121748 26.17554415 -17 24 C-17 21.26226072 -16.95127531 19.51959407 -16 17 C-14.20965785 15.3837809 -12.28791646 14.15099896 -10.27734375 12.8203125 C-5.94277608 9.35563234 -3.0625586 4.57754769 0 0 Z " fill="#0D0D0D" transform="translate(327,448)"/>
<path d="M0 0 C0.99 0.33 1.98 0.66 3 1 C2.59160889 1.4031543 2.18321777 1.80630859 1.76245117 2.22167969 C-0.09852721 4.06178383 -1.95553724 5.90584388 -3.8125 7.75 C-4.45509766 8.38421875 -5.09769531 9.0184375 -5.75976562 9.671875 C-6.38173828 10.290625 -7.00371094 10.909375 -7.64453125 11.546875 C-8.21534424 12.11245117 -8.78615723 12.67802734 -9.37426758 13.26074219 C-11.07921743 15.00894375 -11.07921743 15.00894375 -12.5847168 17.21582031 C-13.05176025 17.80459961 -13.51880371 18.39337891 -14 19 C-14.66 19 -15.32 19 -16 19 C-14.54824556 14.35266775 -11.8485602 11.27850091 -8.5625 7.8125 C-8.07201172 7.27947266 -7.58152344 6.74644531 -7.07617188 6.19726562 C-4.82810603 3.78537312 -2.75553474 1.83702316 0 0 Z " fill="#111111" transform="translate(336,125)"/>
<path d="M0 0 C0.60328125 0.34933594 1.2065625 0.69867187 1.828125 1.05859375 C2.62734375 1.51363281 3.4265625 1.96867188 4.25 2.4375 C5.03890625 2.88996094 5.8278125 3.34242188 6.640625 3.80859375 C8.78833468 4.89311602 10.65205061 5.53148716 13 6 C13 6.66 13 7.32 13 8 C13.721875 8.12375 14.44375 8.2475 15.1875 8.375 C17.95721894 8.9904931 20.3970354 9.88444374 23 11 C21.28417969 12.12451172 21.28417969 12.12451172 19 13 C16.80175781 12.30908203 16.80175781 12.30908203 14.453125 11.0078125 C13.60878906 10.55019531 12.76445312 10.09257813 11.89453125 9.62109375 C11.02183594 9.12738281 10.14914063 8.63367188 9.25 8.125 C8.36183594 7.63902344 7.47367188 7.15304687 6.55859375 6.65234375 C4.36412888 5.44892753 2.17892473 4.23126339 0 3 C0 2.01 0 1.02 0 0 Z " fill="#131313" transform="translate(189,519)"/>
<path d="M0 0 C-3.22295073 3.22295073 -7.43807105 3.33357694 -11.8125 4.1875 C-12.71548828 4.37763672 -13.61847656 4.56777344 -14.54882812 4.76367188 C-15.42603516 4.93833984 -16.30324219 5.11300781 -17.20703125 5.29296875 C-18.40549683 5.53309692 -18.40549683 5.53309692 -19.62817383 5.77807617 C-22.28666511 6.02682229 -24.41924931 5.63824401 -27 5 C-27 4.67 -27 4.34 -27 4 C-23.06517681 3.13317124 -19.12680218 2.28372047 -15.1875 1.4375 C-14.06794922 1.19064453 -12.94839844 0.94378906 -11.79492188 0.68945312 C-10.72177734 0.46064453 -9.64863281 0.23183594 -8.54296875 -0.00390625 C-7.55321045 -0.21861572 -6.56345215 -0.4333252 -5.54370117 -0.65454102 C-3 -1 -3 -1 0 0 Z " fill="#0D0D0D" transform="translate(419,533)"/>
<path d="M0 0 C3.08075862 3.08075862 2.80099051 6.74560543 3.33984375 10.95703125 C4.47153911 16.17354417 7.15476361 19.41995232 11 23 C7.56188206 22.71349017 6.25828807 22.26566773 3.8125 19.75 C0.67197957 14.98507245 -0.25048498 11.39706655 -0.125 5.6875 C-0.10695313 4.61886719 -0.08890625 3.55023438 -0.0703125 2.44921875 C-0.04710937 1.64097656 -0.02390625 0.83273437 0 0 Z " fill="#131313" transform="translate(388,439)"/>
<path d="M0 0 C5.18029908 0.70114429 10.30351936 1.58079647 15.4375 2.5625 C16.53481445 2.77036133 16.53481445 2.77036133 17.65429688 2.98242188 C19.43646318 3.3202181 21.21827002 3.65990988 23 4 C23 4.99 23 5.98 23 7 C20.31162629 6.54639364 17.62438775 6.08726026 14.9375 5.625 C14.18533203 5.49867188 13.43316406 5.37234375 12.65820312 5.2421875 C7.99424757 4.43457615 3.5275066 3.38290374 -1 2 C-0.67 1.34 -0.34 0.68 0 0 Z " fill="#151515" transform="translate(212,531)"/>
<path d="M0 0 C0.43570312 0.37511719 0.87140625 0.75023437 1.3203125 1.13671875 C1.91585938 1.64847656 2.51140625 2.16023437 3.125 2.6875 C3.75664062 3.23921875 4.38828125 3.7909375 5.0390625 4.359375 C6.93420554 5.99662844 6.93420554 5.99662844 8.8359375 7.265625 C10.5 8.4375 10.5 8.4375 13 11 C12.93571953 14.7282672 12.17210845 17.48367465 11 21 C10.34 21 9.68 21 9 21 C9.17660156 20.43152344 9.35320312 19.86304688 9.53515625 19.27734375 C10.13192679 16.62945076 10.40845477 14.6958015 10 12 C7.87839762 9.79126816 5.70888393 8.30142111 3.1015625 6.703125 C1 5 1 5 0.2109375 2.296875 C0.14132812 1.53890625 0.07171875 0.7809375 0 0 Z " fill="#101010" transform="translate(422,161)"/>
<path d="M0 0 C0.66 0 1.32 0 2 0 C0.67146298 4.450599 -1.10250868 8.15288514 -3.5 12.125 C-5.45032654 15.37278953 -7.3642675 18.58131907 -9 22 C-9.66 21.34 -10.32 20.68 -11 20 C-9.73079864 17.6032896 -8.45969813 15.20761907 -7.1875 12.8125 C-6.83107422 12.13896484 -6.47464844 11.46542969 -6.10742188 10.77148438 C-1.76492284 2.60439903 -1.76492284 2.60439903 0 0 Z " fill="#1E1E1E" transform="translate(187,317)"/>
<path d="M0 0 C0.66 1.32 1.32 2.64 2 4 C2.33 4.33 2.66 4.66 3 5 C3.15351581 7.63929097 3.23163061 10.23439959 3.25 12.875 C3.270625 13.60847656 3.29125 14.34195312 3.3125 15.09765625 C3.328125 17.2421875 3.328125 17.2421875 3 21 C2.01 21.99 1.02 22.98 0 24 C0 16.08 0 8.16 0 0 Z " fill="#121212" transform="translate(466,457)"/>
<path d="M0 0 C0.33 0 0.66 0 1 0 C2.64608247 7.02697391 2.2865696 11.39845877 -1.4375 17.6875 C-2.59861098 19.47574725 -3.7775045 21.25314234 -5 23 C-5.99 22.67 -6.98 22.34 -8 22 C-7.57847656 21.30132812 -7.15695312 20.60265625 -6.72265625 19.8828125 C-6.17480469 18.97273438 -5.62695312 18.06265625 -5.0625 17.125 C-4.24458984 15.76761719 -4.24458984 15.76761719 -3.41015625 14.3828125 C-1.40603728 10.99635108 -0.78892621 8.790892 -0.4375 4.875 C-0.35371094 3.96492188 -0.26992188 3.05484375 -0.18359375 2.1171875 C-0.12300781 1.41851562 -0.06242187 0.71984375 0 0 Z " fill="#282828" transform="translate(434,463)"/>
<path d="M0 0 C2.30649356 3.45974034 2.04387719 5.33540921 1.9375 9.37109375 C2.04751613 13.99864731 3.05393192 18.4808355 4 23 C3.34 23 2.68 23 2 23 C-0.57214443 15.94191319 -1.67905663 9.52185804 -1 2 C-0.67 1.34 -0.34 0.68 0 0 Z " fill="#121212" transform="translate(387,216)"/>
<path d="M0 0 C6.97233106 2.97181324 13.70420837 6.51116158 18 13 C17.70703125 15.24609375 17.70703125 15.24609375 17 17 C17 16.34 17 15.68 17 15 C16.34 15 15.68 15 15 15 C14.649375 14.29875 14.29875 13.5975 13.9375 12.875 C10.41831956 7.65299032 4.59971872 4.69143656 -1 2 C-0.67 1.34 -0.34 0.68 0 0 Z " fill="#171717" transform="translate(396,126)"/>
<path d="M0 0 C-2 2 -2 2 -4.8359375 2.23046875 C-12.60013865 2.13620141 -20.27428308 1.79238122 -28 1 C-28 0.67 -28 0.34 -28 0 C-18.57130123 -1.32368341 -9.44343382 -0.71960516 0 0 Z " fill="#0A0A0A" transform="translate(290,539)"/>
<path d="M0 0 C0 1.65 0 3.3 0 5 C0.66 5 1.32 5 2 5 C1.34 9.29 0.68 13.58 0 18 C-0.99 18 -1.98 18 -3 18 C-3 12.39 -3 6.78 -3 1 C-1 0 -1 0 0 0 Z " fill="#202020" transform="translate(377,100)"/>
<path d="M0 0 C2 3 2 3 3 6 C2 7 2 7 -0.59204102 7.11352539 C-1.71795654 7.10828857 -2.84387207 7.10305176 -4.00390625 7.09765625 C-5.21884766 7.09443359 -6.43378906 7.09121094 -7.68554688 7.08789062 C-8.96494141 7.07951172 -10.24433594 7.07113281 -11.5625 7.0625 C-12.84576172 7.05798828 -14.12902344 7.05347656 -15.45117188 7.04882812 C-18.63416022 7.03699545 -21.81705762 7.02051068 -25 7 C-25 6.67 -25 6.34 -25 6 C-16.75 6 -8.5 6 0 6 C-0.33 4.68 -0.66 3.36 -1 2 C-0.67 1.34 -0.34 0.68 0 0 Z " fill="#202020" transform="translate(363,477)"/>
<path d="M0 0 C0.33 0 0.66 0 1 0 C1.165 1.258125 1.33 2.51625 1.5 3.8125 C2.15736595 6.58422955 2.46607963 7.66548254 4.9140625 9.19921875 C6.93152544 9.92992529 8.90667445 10.5326529 11 11 C11 11.66 11 12.32 11 13 C3.72727273 12.63636364 3.72727273 12.63636364 0.5 9.8125 C-1.22617939 6.57591365 -1.41103761 4.617131 -1 1 C-0.67 0.67 -0.34 0.34 0 0 Z " fill="#0E0E0E" transform="translate(380,113)"/>
<path d="M0 0 C0.66 0 1.32 0 2 0 C0.65458308 4.03625076 -1.85947465 4.85447953 -5.4375 6.6875 C-6.03626953 7.00783203 -6.63503906 7.32816406 -7.25195312 7.65820312 C-11.71085421 10 -11.71085421 10 -14 10 C-13 7 -13 7 -10.3125 5.4296875 C-9.219375 4.91664063 -8.12625 4.40359375 -7 3.875 C-3.25198879 2.31487213 -3.25198879 2.31487213 0 0 Z " fill="#0A0A0A" transform="translate(440,521)"/>
<path d="M0 0 C0.71484375 1.578125 0.71484375 1.578125 1 4 C-0.05709499 6.38494456 -1.1317889 8.51234067 -2.4375 10.75 C-2.77587891 11.35199219 -3.11425781 11.95398438 -3.46289062 12.57421875 C-4.29768265 14.05568065 -5.14741494 15.52870608 -6 17 C-6.66 16.34 -7.32 15.68 -8 15 C-7.04416032 13.06126858 -6.08523808 11.1240567 -5.125 9.1875 C-4.32449219 7.56908203 -4.32449219 7.56908203 -3.5078125 5.91796875 C-2 3 -2 3 0 0 Z " fill="#141414" transform="translate(389,331)"/>
<path d="M0 0 C0.66 0.66 1.32 1.32 2 2 C0.71520959 3.50589388 -0.57804082 5.00457375 -1.875 6.5 C-2.59429687 7.3353125 -3.31359375 8.170625 -4.0546875 9.03125 C-4.69664062 9.6809375 -5.33859375 10.330625 -6 11 C-6.66 11 -7.32 11 -8 11 C-8 11.66 -8 12.32 -8 13 C-8.99 12.67 -9.98 12.34 -11 12 C-10.37351562 11.38511719 -9.74703125 10.77023438 -9.1015625 10.13671875 C-8.28429687 9.32847656 -7.46703125 8.52023438 -6.625 7.6875 C-5.40683594 6.48673828 -5.40683594 6.48673828 -4.1640625 5.26171875 C-1.87395158 2.99990063 -1.87395158 2.99990063 0 0 Z " fill="#1D1D1D" transform="translate(288,241)"/>
<path d="M0 0 C0.99 0.33 1.98 0.66 3 1 C4.42857143 9.57142857 4.42857143 9.57142857 2 13 C1.34 10.36 0.68 7.72 0 5 C-0.99 5.33 -1.98 5.66 -3 6 C-1.125 1.125 -1.125 1.125 0 0 Z " fill="#161616" transform="translate(364,83)"/>
<path d="M0 0 C0.56460938 0.25136719 1.12921875 0.50273437 1.7109375 0.76171875 C-0.03821695 2.2002475 -1.78842045 3.63750073 -3.5390625 5.07421875 C-5.00085938 6.27498047 -5.00085938 6.27498047 -6.4921875 7.5 C-8.7256887 9.30614133 -10.97593513 11.0599179 -13.2890625 12.76171875 C-11.75658201 9.1776918 -9.6216024 6.73321741 -6.9140625 3.94921875 C-6.14320313 3.13839844 -5.37234375 2.32757813 -4.578125 1.4921875 C-2.2890625 -0.23828125 -2.2890625 -0.23828125 0 0 Z " fill="#161616" transform="translate(211.2890625,293.23828125)"/>
<path d="M0 0 C0.99 0.33 1.98 0.66 3 1 C2.67 1.66 2.34 2.32 2 3 C-0.0625 3.625 -0.0625 3.625 -2 4 C-2.33 3.34 -2.66 2.68 -3 2 C-2.01 1.34 -1.02 0.68 0 0 Z M-3 3 C-4 6 -4 6 -6.375 7.75 C-9 9 -9 9 -12 8 C-5.87096774 3 -5.87096774 3 -3 3 Z " fill="#181818" transform="translate(231,279)"/>
<path d="M0 0 C0.33 0 0.66 0 1 0 C1.42765417 6.41481258 -0.14256832 11.88595404 -2 18 C-4.067714 14.66696848 -4.10526716 12.79091391 -3.25 9 C-3.06953125 8.154375 -2.8890625 7.30875 -2.703125 6.4375 C-2.02962038 4.10268399 -1.16230188 2.12760344 0 0 Z " fill="#171717" transform="translate(310,188)"/>
<path d="M0 0 C4.18423892 3.50897269 8.19588166 7.08060535 12 11 C11.01 11.495 11.01 11.495 10 12 C8.5344405 10.92646259 7.07779848 9.8407446 5.625 8.75 C4.81289062 8.14671875 4.00078125 7.5434375 3.1640625 6.921875 C1.03173222 5.02818096 0.05363296 3.61671482 -1 1 C-0.67 0.67 -0.34 0.34 0 0 Z " fill="#212121" transform="translate(202,479)"/>
<path d="M0 0 C0.33 0 0.66 0 1 0 C1 2.64 1 5.28 1 8 C1.66 8 2.32 8 3 8 C4.28317892 11.84953676 4.06643637 14.94738135 4 19 C-0.01476736 12.97784896 -0.28573751 7.00056891 0 0 Z " fill="#171717" transform="translate(358,459)"/>
<path d="M0 0 C0.66 0.33 1.32 0.66 2 1 C2.4140625 3.72265625 2.4140625 3.72265625 2.625 7.0625 C2.69976562 8.16722656 2.77453125 9.27195312 2.8515625 10.41015625 C2.90054687 11.26480469 2.94953125 12.11945313 3 13 C2.34 13 1.68 13 1 13 C-0.6290678 8.20862412 -1.20577428 4.94367454 0 0 Z " fill="#1C1C1C" transform="translate(333,464)"/>
<path d="M0 0 C0.66 0.99 1.32 1.98 2 3 C0.35 5.97 -1.3 8.94 -3 12 C-3.66 12 -4.32 12 -5 12 C-3.68938409 7.76570244 -2.05643741 3.92592596 0 0 Z " fill="#191919" transform="translate(462,492)"/>
<path d="M0 0 C0.66 0.66 1.32 1.32 2 2 C-1.3 4.64 -4.6 7.28 -8 10 C-8.66 9.34 -9.32 8.68 -10 8 C-9.36191406 7.50628906 -8.72382813 7.01257813 -8.06640625 6.50390625 C-7.24011719 5.86324219 -6.41382813 5.22257812 -5.5625 4.5625 C-4.73878906 3.92441406 -3.91507812 3.28632813 -3.06640625 2.62890625 C-1.12498733 1.16417803 -1.12498733 1.16417803 0 0 Z " fill="#171717" transform="translate(276,254)"/>
<path d="M0 0 C2.68912283 1.34456142 2.7891782 2.57411381 3.75 5.375 C4.03359375 6.16648437 4.3171875 6.95796875 4.609375 7.7734375 C5 10 5 10 3 13 C2.49242138 11.58603098 1.99425075 10.16868271 1.5 8.75 C1.08234375 7.56664062 1.08234375 7.56664062 0.65625 6.359375 C0 4 0 4 0 0 Z " fill="#1C1C1C" transform="translate(462,443)"/>
<path d="M0 0 C2.42130331 2.42130331 2.52840504 3.80111377 3.125 7.125 C3.29257813 8.03507812 3.46015625 8.94515625 3.6328125 9.8828125 C3.81457031 10.93082031 3.81457031 10.93082031 4 12 C3.34 12 2.68 12 2 12 C0.00214565 7.8794254 -0.17835515 4.54805635 0 0 Z " fill="#141414" transform="translate(162,479)"/>
<path d="M0 0 C0.88171875 0.30164063 1.7634375 0.60328125 2.671875 0.9140625 C3.56390625 1.21054687 4.4559375 1.50703125 5.375 1.8125 C6.05046875 2.05226563 6.7259375 2.29203125 7.421875 2.5390625 C7.091875 3.1990625 6.761875 3.8590625 6.421875 4.5390625 C2.131875 3.5490625 -2.158125 2.5590625 -6.578125 1.5390625 C-2.578125 -0.4609375 -2.578125 -0.4609375 0 0 Z " fill="#161616" transform="translate(434.578125,418.4609375)"/>
<path d="M0 0 C0.33 0 0.66 0 1 0 C0.67 3.3 0.34 6.6 0 10 C-0.66 10 -1.32 10 -2 10 C-2.33 10.66 -2.66 11.32 -3 12 C-2.88601335 10.37419034 -2.75844341 8.74932843 -2.625 7.125 C-2.55539063 6.22007812 -2.48578125 5.31515625 -2.4140625 4.3828125 C-2 2 -2 2 0 0 Z " fill="#232323" transform="translate(163,382)"/>
<path d="M0 0 C1.1055189 0.93590504 2.20935453 1.87379858 3.3125 2.8125 C3.92738281 3.33457031 4.54226563 3.85664063 5.17578125 4.39453125 C6.85424679 5.87172469 8.43882034 7.40039131 10 9 C9.01 9.495 9.01 9.495 8 10 C1.29540481 5.88621444 1.29540481 5.88621444 0.0625 2.1875 C0.0315625 1.1046875 0.0315625 1.1046875 0 0 Z " fill="#202020" transform="translate(422,161)"/>
<path d="M0 0 C4.03520597 1.58962659 8.01811282 3.28232318 12 5 C11.67 5.66 11.34 6.32 11 7 C6.96678237 5.78065514 3.45730521 4.44045073 0 2 C0 1.34 0 0.68 0 0 Z " fill="#0F0F0F" transform="translate(213,490)"/>
<path d="M0 0 C0.66 0.66 1.32 1.32 2 2 C0.68 4.97 -0.64 7.94 -2 11 C-2.66 11 -3.32 11 -4 11 C-3.39301257 6.87248551 -1.96189209 3.6678852 0 0 Z " fill="#111111" transform="translate(372,363)"/>
<path d="M0 0 C0.66 0.66 1.32 1.32 2 2 C1.04956626 3.33897583 0.08940853 4.67105427 -0.875 6 C-1.40867187 6.7425 -1.94234375 7.485 -2.4921875 8.25 C-2.98976563 8.8275 -3.48734375 9.405 -4 10 C-4.66 10 -5.32 10 -6 10 C-4.6302836 6.00499382 -2.74277578 3.19990508 0 0 Z " fill="#1B1B1B" transform="translate(326,134)"/>
<path d="M0 0 C0.66 0 1.32 0 2 0 C0.77472971 4.05281712 -0.69880494 7.44360764 -3 11 C-3.75 9.4375 -3.75 9.4375 -4 7 C-2.86915563 4.49713591 -1.47860484 2.32992278 0 0 Z " fill="#151515" transform="translate(187,317)"/>
<path d="M0 0 C3.36591866 1.44253657 5.51047079 3.33264727 8 6 C7.34 6.66 6.68 7.32 6 8 C4.99403703 7.0479279 3.99538437 6.08812654 3 5.125 C2.443125 4.59132813 1.88625 4.05765625 1.3125 3.5078125 C0 2 0 2 0 0 Z " fill="#161616" transform="translate(179,511)"/>
<path d="M0 0 C0.33 0 0.66 0 1 0 C0.85831863 1.43791516 0.71148957 2.8753237 0.5625 4.3125 C0.48128906 5.11300781 0.40007812 5.91351563 0.31640625 6.73828125 C0 9 0 9 -1 12 C-1.66 12 -2.32 12 -3 12 C-2.67 9.36 -2.34 6.72 -2 4 C-1.34 4 -0.68 4 0 4 C0 2.68 0 1.36 0 0 Z " fill="#090909" transform="translate(467,477)"/>
<path d="M0 0 C0.66 0.33 1.32 0.66 2 1 C1.49287967 4.71888239 0.88391785 7.73454239 -1 11 C-2.26264601 6.70700357 -1.62950412 4.12168689 0 0 Z " fill="#1C1C1C" transform="translate(166,365)"/>
<path d="M0 0 C0.88336837 2.4667645 1.1312406 3.63859372 0.22265625 6.140625 C-0.16019531 6.83671875 -0.54304688 7.5328125 -0.9375 8.25 C-1.31777344 8.95640625 -1.69804687 9.6628125 -2.08984375 10.390625 C-2.39019531 10.92171875 -2.69054687 11.4528125 -3 12 C-3.66 11.67 -4.32 11.34 -5 11 C-3.55049545 7.2089881 -1.84827434 3.6125362 0 0 Z " fill="#0F0F0F" transform="translate(379,349)"/>
<path d="M0 0 C0.66 0.66 1.32 1.32 2 2 C0.35 4.64 -1.3 7.28 -3 10 C-3.66 9.34 -4.32 8.68 -5 8 C-3.35 5.36 -1.7 2.72 0 0 Z " fill="#171717" transform="translate(350,105)"/>
<path d="M0 0 C1.31823302 0.59155331 2.62947051 1.19871463 3.9375 1.8125 C5.03384766 2.31716797 5.03384766 2.31716797 6.15234375 2.83203125 C8 4 8 4 9 7 C5.40608886 5.66511872 2.24509304 4.03977277 -1 2 C-0.67 1.34 -0.34 0.68 0 0 Z " fill="#222222" transform="translate(203,475)"/>
<path d="M0 0 C3.25543229 0.34879632 4.01873107 1.02133261 6.25 3.5625 C6.8275 4.366875 7.405 5.17125 8 6 C7.01 6.495 7.01 6.495 6 7 C1.125 2.25 1.125 2.25 0 0 Z " fill="#161616" transform="translate(450,429)"/>
<path d="M0 0 C2 3 2 3 1.625 6.1875 C1.41875 7.115625 1.2125 8.04375 1 9 C0.34 9 -0.32 9 -1 9 C-1.33 9.99 -1.66 10.98 -2 12 C-1.85831863 10.56208484 -1.71148957 9.1246763 -1.5625 7.6875 C-1.48128906 6.88699219 -1.40007812 6.08648437 -1.31640625 5.26171875 C-1 3 -1 3 0 0 Z " fill="#0B0B0B" transform="translate(164,373)"/>
<path d="M0 0 C0.66 0 1.32 0 2 0 C1.38461538 6.52307692 1.38461538 6.52307692 -0.5625 8.9375 C-1.036875 9.288125 -1.51125 9.63875 -2 10 C-3.04127245 6.6868604 -3.18574123 5.39801692 -1.6875 2.1875 C-1.130625 1.465625 -0.57375 0.74375 0 0 Z " fill="#232323" transform="translate(376,90)"/>
<path d="M0 0 C2.95929119 2.75520215 5.03681826 5.46627288 7 9 C6.01 9 5.02 9 4 9 C0.8217901 5.7309841 0 4.67834007 0 0 Z " fill="#141414" transform="translate(171,500)"/>
<path d="M0 0 C0.66 0.66 1.32 1.32 2 2 C1.7578125 4.1640625 1.7578125 4.1640625 1.125 6.625 C0.92132813 7.44226563 0.71765625 8.25953125 0.5078125 9.1015625 C0.34023437 9.72804688 0.17265625 10.35453125 0 11 C-2 8 -2 8 -1.7578125 5.95703125 C-1.171875 3.97135417 -0.5859375 1.98567708 0 0 Z " fill="#222222" transform="translate(169,354)"/>
<path d="M0 0 C2.5 2.25 2.5 2.25 5 5 C5 6.32 5 7.64 5 9 C4.401875 8.21625 3.80375 7.4325 3.1875 6.625 C1.08914751 3.85425677 1.08914751 3.85425677 -2 2 C-1.34 1.34 -0.68 0.68 0 0 Z " fill="#1A1A1A" transform="translate(403,146)"/>
<path d="M0 0 C3.96 1.98 3.96 1.98 8 4 C7.01 4.66 6.02 5.32 5 6 C3.02 4.68 1.04 3.36 -1 2 C-0.67 1.34 -0.34 0.68 0 0 Z " fill="#232323" transform="translate(189,519)"/>
<path d="M0 0 C0.33 0.99 0.66 1.98 1 3 C-1.57213134 4.61949011 -2.67669159 5.04408751 -5.75 4.625 C-6.4925 4.41875 -7.235 4.2125 -8 4 C-5.33333333 2.66666667 -2.66666667 1.33333333 0 0 Z " fill="#1F1F1F" transform="translate(412,495)"/>
<path d="M0 0 C0.33 0.66 0.66 1.32 1 2 C1.639375 2.309375 2.27875 2.61875 2.9375 2.9375 C5 4 5 4 7 7 C3.46013806 7 2.50484597 6.41847197 0 4 C0 2.68 0 1.36 0 0 Z " fill="#242424" transform="translate(310,468)"/>
<path d="M0 0 C0.66 0.66 1.32 1.32 2 2 C0.35 4.31 -1.3 6.62 -3 9 C-3.66 8.34 -4.32 7.68 -5 7 C-3.35 4.69 -1.7 2.38 0 0 Z " fill="#202020" transform="translate(327,448)"/>
<path d="M0 0 C0.66 0.33 1.32 0.66 2 1 C0.25 6.75 0.25 6.75 -2 9 C-3 6 -3 6 -1.5625 2.8125 C-1.046875 1.884375 -0.53125 0.95625 0 0 Z " fill="#0F0F0F" transform="translate(176,338)"/>
<path d="M0 0 C0.33 0 0.66 0 1 0 C1.125 7.625 1.125 7.625 0 11 C-0.66 11 -1.32 11 -2 11 C-1 3.57142857 -1 3.57142857 0 0 Z " fill="#0D0D0D" transform="translate(400,302)"/>
<path d="M0 0 C0.66 0 1.32 0 2 0 C1.45276317 3.37462715 0.9451 5.08235 -1 8 C-1.66 8 -2.32 8 -3 8 C-1.125 2.25 -1.125 2.25 0 0 Z " fill="#191919" transform="translate(299,222)"/>
<path d="M0 0 C0.66 0.33 1.32 0.66 2 1 C2.40729228 3.32156597 2.74438677 5.6568787 3 8 C2.01 8 1.02 8 0 8 C-0.38063221 5.6739143 -0.71269945 3.33944736 -1 1 C-0.67 0.67 -0.34 0.34 0 0 Z " fill="#111111" transform="translate(409,155)"/>
<path d="M0 0 C0.66 0.33 1.32 0.66 2 1 C1.67 2.65 1.34 4.3 1 6 C0.34 6 -0.32 6 -1 6 C-1 6.99 -1 7.98 -1 9 C-1.66 9 -2.32 9 -3 9 C-2.01 6.03 -1.02 3.06 0 0 Z " fill="#292929" transform="translate(317,148)"/>
<path d="M0 0 C0.33 0.66 0.66 1.32 1 2 C-3.01804691 2.84098656 -6.01803543 3.05404945 -10 2 C-10 1.67 -10 1.34 -10 1 C-6.59437148 0.22157062 -3.49234244 -0.09978121 0 0 Z " fill="#161616" transform="translate(402,536)"/>
<path d="M0 0 C-1.0975223 2.99324263 -1.67682892 3.84610901 -4.625 5.25 C-5.40875 5.4975 -6.1925 5.745 -7 6 C-7.33 5.34 -7.66 4.68 -8 4 C-2.25 0 -2.25 0 0 0 Z " fill="#1D1D1D" transform="translate(422,490)"/>
<path d="M0 0 C0.66 0.33 1.32 0.66 2 1 C0.25 6.75 0.25 6.75 -2 9 C-2.6875 7.3125 -2.6875 7.3125 -3 5 C-1.5625 2.25 -1.5625 2.25 0 0 Z " fill="#181818" transform="translate(392,431)"/>
<path d="M0 0 C0.33 0.99 0.66 1.98 1 3 C1.66 3 2.32 3 3 3 C3.93065133 5.60582371 4.14917407 6.64198224 3.0625 9.25 C2.711875 9.8275 2.36125 10.405 2 11 C0.80712589 7.12315913 0 4.08378077 0 0 Z " fill="#131313" transform="translate(397,258)"/>
<path d="M0 0 C0.33 0 0.66 0 1 0 C1 2.64 1 5.28 1 8 C1.66 8 2.32 8 3 8 C3.33 9.32 3.66 10.64 4 12 C3.01 11.67 2.02 11.34 1 11 C-0.20272819 8.59454362 -0.10071472 7.05003047 -0.0625 4.375 C-0.05347656 3.55773437 -0.04445313 2.74046875 -0.03515625 1.8984375 C-0.02355469 1.27195313 -0.01195312 0.64546875 0 0 Z " fill="#1C1C1C" transform="translate(399,148)"/>
<path d="M0 0 C-1 3 -1 3 -4 5 C-6.1875 4.625 -6.1875 4.625 -8 4 C-2.25 0 -2.25 0 0 0 Z " fill="#171717" transform="translate(442,521)"/>
<path d="M0 0 C0 0.99 0 1.98 0 3 C-1.98 3.99 -3.96 4.98 -6 6 C-6 5.01 -6 4.02 -6 3 C-2.66666667 0 -2.66666667 0 0 0 Z " fill="#1E1E1E" transform="translate(403,422)"/>
<path d="M0 0 C0.66 0 1.32 0 2 0 C2.66 2.64 3.32 5.28 4 8 C3.34 8 2.68 8 2 8 C2 7.01 2 6.02 2 5 C1.34 5 0.68 5 0 5 C0 3.35 0 1.7 0 0 Z " fill="#2F2F2F" transform="translate(396,253)"/>
<path d="M0 0 C0.66 0.33 1.32 0.66 2 1 C0.75023244 4.65316671 0.32901247 5.78065836 -3 8 C-3 4.42424104 -1.91159393 2.94704065 0 0 Z " fill="#1E1E1E" transform="translate(293,233)"/>
<path d="M0 0 C0 0.66 0 1.32 0 2 C2.64 2 5.28 2 8 2 C8 2.33 8 2.66 8 3 C6.39620659 3.05416188 4.79188594 3.09286638 3.1875 3.125 C2.29417969 3.14820313 1.40085937 3.17140625 0.48046875 3.1953125 C-2 3 -2 3 -5 1 C-2 0 -2 0 0 0 Z " fill="#303030" transform="translate(405,203)"/>
</svg>
