<svg width="60" height="62" viewBox="0 0 60 62" fill="none" xmlns="http://www.w3.org/2000/svg">
<g id="image 2 (1) 1" clip-path="url(#clip0_3026_2)">
<path id="Vector" d="M11.3545 -0.192871C12.2559 -0.208934 13.1574 -0.224997 14.0861 -0.241547C18.2156 -0.286026 22.3449 -0.327072 26.4746 -0.350098C28.6512 -0.366646 30.8276 -0.39392 33.0039 -0.432129C36.1435 -0.486967 39.2819 -0.508784 42.4219 -0.523438C43.3908 -0.546107 44.3598 -0.568776 45.3581 -0.592133C49.8638 -0.578084 53.0091 -0.493366 56.5986 2.40771C59.6724 5.72588 60.125 7.15448 60.1929 11.5381C60.2089 12.4796 60.225 13.421 60.2415 14.3911C60.286 18.7037 60.3271 23.0162 60.3501 27.3291C60.3666 29.6026 60.3939 31.8761 60.4321 34.1494C60.4869 37.428 60.5088 40.7054 60.5234 43.9844C60.5461 44.9971 60.5688 46.0098 60.5921 47.0532C60.5784 51.6498 60.5565 54.9572 57.5923 58.626C54.3336 61.6103 52.9242 62.1236 48.6455 62.1929C47.7441 62.2089 46.8426 62.225 45.9139 62.2415C41.7844 62.286 37.6551 62.3271 33.5254 62.3501C31.3488 62.3666 29.1724 62.3939 26.9961 62.4321C23.8565 62.487 20.7181 62.5088 17.5781 62.5234C16.6092 62.5461 15.6402 62.5688 14.6419 62.5921C10.1362 62.5781 6.99092 62.4934 3.40137 59.5923C0.327582 56.2741 -0.124964 54.8455 -0.192871 50.4619C-0.208934 49.5204 -0.224997 48.579 -0.241547 47.6089C-0.286009 43.2963 -0.327071 38.9838 -0.350098 34.6709C-0.366648 32.3974 -0.393925 30.1239 -0.432129 27.8506C-0.486947 24.572 -0.508781 21.2946 -0.523438 18.0156C-0.546107 17.0029 -0.568776 15.9902 -0.592133 14.9468C-0.578401 10.3502 -0.556507 7.04279 2.40771 3.37402C5.66637 0.389741 7.07584 -0.123626 11.3545 -0.192871Z" fill="black"/>
<g id="tea">
<path id="Vector_2" d="M42 10C45.3753 36.7513 45.3753 36.7513 46 50C40.4175 53.3258 36.5031 54.4645 30 54C29.34 52.35 28.68 50.7 28 49C27.34 49 26.68 49 26 49C25.505 47.845 25.01 46.69 24.5 45.5C23.0696 42.249 21.5397 39.0688 19.918 35.9102C19.5519 35.1947 19.1858 34.4793 18.8086 33.7422C18.0641 32.2947 17.3128 30.8506 16.5547 29.4102C15.6437 27.636 14.8145 25.8205 14 24C14.33 23.34 14.66 22.68 15 22C23.1016 20.1159 33.4139 19.3787 41 23C41 20.03 41 17.06 41 14C35.7191 11.3596 30.5345 13.354 25.25 15.0625C24.1414 15.4454 23.0328 15.8282 21.8906 16.2227C19 17 19 17 16 16C24.8571 12.2611 32.3339 9.87943 42 10Z" fill="#E48B3B"/>
<path id="Vector_3" d="M40 12C42.3992 16.6485 42.1996 20.9108 42 26C41.34 25.01 40.68 24.02 40 23C33.6458 20.4583 24.4347 21.4313 17.8125 22.625C15 23 15 23 12 21C13.4858 17.2679 13.4858 17.2679 15.7524 16.0869C16.4452 15.8984 17.1379 15.7099 17.8516 15.5156C18.6211 15.3029 19.3907 15.0902 20.1836 14.8711C21.3921 14.5636 21.3921 14.5636 22.625 14.25C23.7987 13.9193 23.7987 13.9193 24.9961 13.582C30.1391 12.2088 34.6825 11.781 40 12Z" fill="#140E08"/>
<path id="Vector_4" d="M42 36C42.8179 38.8956 43.1889 41.5546 43.25 44.5625C43.2758 45.3269 43.3016 46.0913 43.3281 46.8789C43 49 43 49 41.7773 50.7656C39.4775 52.3629 38.085 52.308 35.3125 52.1875C34.5043 52.1604 33.696 52.1334 32.8633 52.1055C32.2484 52.0707 31.6335 52.0359 31 52C30.1618 50.3775 29.3296 48.7519 28.5 47.125C28.0359 46.2201 27.5719 45.3152 27.0938 44.3828C26 42 26 42 26 40C27.98 40 29.96 40 32 40C32 40.66 32 41.32 32 42C32.66 42 33.32 42 34 42C34.33 41.01 34.66 40.02 35 39C39.3333 36 39.3333 36 42 36Z" fill="#F98F30"/>
<path id="Vector_5" d="M28.9375 20.8125C30.1428 20.7983 31.348 20.7841 32.5898 20.7695C35.8602 20.9906 38.0682 21.5925 41 23C39.4127 24.8906 38.5255 25.9037 36.0547 26.3564C35.3354 26.3471 34.6161 26.3378 33.875 26.3281C33.0861 26.323 32.2972 26.3178 31.4844 26.3125C30.6645 26.2919 29.8447 26.2713 29 26.25C28.1802 26.2448 27.3603 26.2397 26.5156 26.2344C23.0302 26.1888 20.3365 26.1122 17 25C17.33 24.01 17.66 23.02 18 22C21.4575 20.5656 25.2482 20.8322 28.9375 20.8125Z" fill="#FA7501"/>
<path id="Vector_6" d="M36.3125 11.9375C38.1378 11.9684 38.1378 11.9684 40 12C38.2839 15.4322 34.4692 15.8367 30.9922 17.0469C25.4091 18.8253 19.9088 20.3812 14 20C16.3283 16.5076 17.445 16.2043 21.3125 14.875C22.2574 14.5424 23.2023 14.2098 24.1758 13.8672C28.2748 12.6086 32.0217 11.8648 36.3125 11.9375Z" fill="#0B0B0B"/>
<path id="Vector_7" d="M33 31C33.66 31 34.32 31 35 31C35 31.99 35 32.98 35 34C36.98 34 38.96 34 41 34C39.6106 37.4734 38.3875 38.5179 35 40C34.34 40.66 33.68 41.32 33 42C33 38.37 33 34.74 33 31Z" fill="#A45D1E"/>
</g>
</g>
<defs>
<clipPath id="clip0_3026_2">
<rect width="60" height="62" fill="white"/>
</clipPath>
</defs>
</svg>
